<svg width="143" height="32" viewBox="0 0 143 32" fill="none" xmlns="http://www.w3.org/2000/svg">
  <g clip-path="url(#clip0_108_10618)">
    <path d="M16.4419 17.2306L22.9747 20.4242L29.5076 17.2306L22.9747 14.037L16.4419 17.2306Z" fill="#F6BDD6"></path>
    <path d="M22.9747 27.3928C22.8364 27.3938 22.6999 27.3623 22.5761 27.3007L9.21584 20.7639L5.9292 22.3751L22.9747 30.713L40.026 22.3751L36.7335 20.7639L23.3559 27.3007C23.2374 27.3597 23.1071 27.3911 22.9747 27.3928Z" fill="#E95495"></path>
    <path d="M22.9747 22.2484C22.8427 22.2485 22.7124 22.219 22.5935 22.1621L14.4895 18.1917L11.1855 19.8201L22.9747 25.5743L34.7639 19.8201L31.4772 18.2089L23.3559 22.1793C23.2356 22.2304 23.1054 22.2539 22.9747 22.2484Z" fill="#F195BD"></path>
    <path d="M13.4902 17.7141L12.5082 17.2307L9.21582 18.8419L10.2035 19.3195L11.1855 19.8029L14.4779 18.1917L13.4902 17.7141Z" fill="#777475"></path>
    <path d="M23.3557 12.2994C23.2375 12.2397 23.1069 12.2086 22.9745 12.2086C22.842 12.2086 22.7114 12.2397 22.5932 12.2994L14.4893 16.2698L15.477 16.7474L16.4589 17.2307L22.9745 14.0659L29.5073 17.2307L30.495 16.7474L31.477 16.2698L23.3557 12.2994Z" fill="#ABA9A9"></path>
    <path d="M33.4409 17.2307L32.459 17.7141L31.4771 18.1917L34.7637 19.8029L35.7514 19.3195L36.7334 18.8419L33.4409 17.2307Z" fill="#777475"></path>
    <path d="M34.7638 14.6413L36.7335 13.6803L23.3559 7.16075C23.2346 7.10133 23.1012 7.07043 22.966 7.07043C22.8308 7.07043 22.6974 7.10133 22.5761 7.16075L9.21582 13.6976L11.1855 14.6413L22.9747 8.88702L34.7638 14.6413Z" fill="#777475"></path>
    <path d="M42.8559 17.2307C42.8548 17.0693 42.809 16.9112 42.7233 16.7741C42.6377 16.637 42.5156 16.5262 42.3707 16.4539L38.697 14.6413L42.3707 12.846C42.5156 12.7747 42.6376 12.6645 42.723 12.5277C42.8083 12.3909 42.8535 12.2331 42.8535 12.0721C42.8535 11.911 42.8083 11.7532 42.723 11.6164C42.6376 11.4797 42.5156 11.3694 42.3707 11.2981L23.3555 2.01652C23.2373 1.95687 23.1067 1.92578 22.9743 1.92578C22.8418 1.92578 22.7112 1.95687 22.593 2.01652L3.57787 11.3154C3.43293 11.3867 3.3109 11.4969 3.22557 11.6337C3.14024 11.7705 3.09502 11.9283 3.09502 12.0893C3.09502 12.2504 3.14024 12.4082 3.22557 12.545C3.3109 12.6817 3.43293 12.792 3.57787 12.8633L7.25152 14.6413L3.57787 16.4367C3.43138 16.5073 3.30784 16.6177 3.2214 16.7551C3.13496 16.8925 3.08911 17.0513 3.08911 17.2135C3.08911 17.3756 3.13496 17.5345 3.2214 17.6719C3.30784 17.8093 3.43138 17.9196 3.57787 17.9903L7.25152 19.8202L3.57787 21.6155C3.43293 21.6868 3.3109 21.797 3.22557 21.9338C3.14024 22.0706 3.09502 22.2284 3.09502 22.3894C3.09502 22.5505 3.14024 22.7083 3.22557 22.8451C3.3109 22.9818 3.43293 23.0921 3.57787 23.1634L22.5757 32.445C22.6936 32.5055 22.8243 32.5371 22.9569 32.5371C23.0896 32.5371 23.2203 32.5055 23.3382 32.445L42.3707 23.1461C42.5156 23.0748 42.6376 22.9646 42.723 22.8278C42.8083 22.691 42.8535 22.5332 42.8535 22.3722C42.8535 22.2111 42.8083 22.0533 42.723 21.9165C42.6376 21.7798 42.5156 21.6695 42.3707 21.5982L38.697 19.8202L42.3707 18.0248C42.5183 17.9513 42.6421 17.8378 42.7279 17.6973C42.8137 17.5569 42.8581 17.3952 42.8559 17.2307ZM5.92877 12.0865L22.9743 3.74855L40.0255 12.0865L36.7331 13.6976L34.7634 14.6413L31.4768 16.2525L30.4948 16.7301L29.5071 17.2307L22.9743 20.4244L16.4414 17.2307L15.4595 16.7474L14.4891 16.2698L11.1851 14.6413L9.21542 13.6804L5.92877 12.0865ZM5.92877 22.375L9.21542 20.7639L22.5757 27.3007C22.6947 27.3574 22.825 27.3868 22.9569 27.3868C23.0889 27.3868 23.2191 27.3574 23.3382 27.3007L36.7331 20.7639L40.0255 22.375L22.9743 30.7129L5.92877 22.375ZM36.7331 18.8419L35.7512 19.3195L34.7634 19.8202L22.9743 25.5744L11.1851 19.8202L10.2031 19.3368L9.21542 18.8592L5.92877 17.248L9.21542 15.6368L12.5078 17.248L13.4898 17.7314L14.4717 18.209L22.5757 22.1621C22.6947 22.2188 22.825 22.2483 22.9569 22.2483C23.0889 22.2483 23.2191 22.2188 23.3382 22.1621L31.4595 18.1917L32.4414 17.7141L33.4234 17.2307L36.7158 15.6196L40.0082 17.2307L36.7331 18.8419Z" fill="white"></path>
    <path d="M53.6052 24.5904V5.75098H57.0305V21.7305H65.3597V24.6076L53.6052 24.5904Z" fill="white"></path>
    <path d="M72.2509 24.8782C71.4169 24.8917 70.5896 24.7269 69.8249 24.3948C69.1312 24.0917 68.541 23.5938 68.1267 22.962C67.6919 22.2617 67.4748 21.4488 67.5029 20.6258C67.4792 19.939 67.6323 19.2576 67.9477 18.6463C68.2369 18.1346 68.6524 17.7048 69.1549 17.3977C69.6935 17.0749 70.2776 16.8344 70.8877 16.6841C71.545 16.5201 72.2127 16.4009 72.8863 16.3274C73.7181 16.2468 74.3939 16.1663 74.908 16.0972C75.3117 16.0647 75.7047 15.9512 76.0632 15.7635C76.1803 15.6889 76.2752 15.5844 76.3382 15.461C76.4011 15.3376 76.4298 15.1996 76.4213 15.0615V15.0039C76.4383 14.7071 76.392 14.4101 76.2855 14.1324C76.1789 13.8547 76.0146 13.6026 75.8033 13.3927C75.3035 12.9817 74.6652 12.7759 74.0184 12.8173C73.3301 12.7792 72.6483 12.9672 72.0776 13.3524C71.6214 13.6674 71.2775 14.1189 71.0957 14.6414L67.9708 14.1983C68.1906 13.3893 68.6095 12.6476 69.1895 12.0405C69.7724 11.4526 70.4842 11.0074 71.269 10.74C72.1416 10.4385 73.0602 10.2906 73.9838 10.3027C74.6704 10.3013 75.3548 10.3805 76.0228 10.5386C76.6828 10.6898 77.3107 10.9567 77.8769 11.3269C78.4479 11.6997 78.9149 12.2105 79.2343 12.8115C79.597 13.5399 79.7717 14.3468 79.7426 15.1593V24.5905H76.5311V22.6513H76.4213C75.9463 23.5465 75.1503 24.2306 74.1917 24.5675C73.5689 24.7867 72.9114 24.892 72.2509 24.8782ZM73.1173 22.4269C73.7191 22.4403 74.3148 22.3038 74.8502 22.0298C75.3246 21.7852 75.7237 21.4174 76.0054 20.9653C76.2696 20.5298 76.4075 20.0299 76.404 19.521V17.858C76.2448 17.9719 76.064 18.0522 75.8726 18.0939C75.599 18.1737 75.3213 18.239 75.0408 18.2896C74.7289 18.3471 74.4285 18.3932 74.1224 18.4392L73.3426 18.5485C72.8844 18.6041 72.4345 18.7142 72.0026 18.8765C71.6526 19.0128 71.3413 19.232 71.0957 19.5152C70.8613 19.8154 70.7407 20.1883 70.7549 20.5683C70.7391 20.8385 70.7928 21.1083 70.9111 21.352C71.0294 21.5957 71.2083 21.8053 71.4307 21.9608C71.9342 22.2839 72.5245 22.4465 73.1231 22.4269H73.1173Z" fill="white"></path>
    <path d="M84.6753 29.8613C84.2534 29.8643 83.8319 29.8296 83.4161 29.7577C83.102 29.7054 82.7942 29.6206 82.4977 29.5046L83.2717 26.9152C83.86 27.1206 84.4941 27.1584 85.1028 27.0245C85.3987 26.9035 85.6629 26.7166 85.8751 26.4783C86.0873 26.2399 86.242 25.9563 86.3273 25.6492L86.6161 24.8839L81.4927 10.458H85.0392L88.3086 21.1321H88.4241L91.6992 10.458H95.2746L89.5793 26.2994C89.34 26.9904 88.9824 27.6348 88.5223 28.2041C88.0931 28.7338 87.5451 29.1556 86.9223 29.4355C86.2116 29.7331 85.446 29.8782 84.6753 29.8613Z" fill="white"></path>
    <path d="M103.385 24.8667C102.101 24.902 100.831 24.5961 99.7051 23.9805C98.6783 23.3944 97.8499 22.517 97.3254 21.4602C96.7525 20.2591 96.4734 18.9398 96.5109 17.6106C96.4809 16.285 96.768 14.9714 97.3485 13.7782C97.8614 12.7139 98.6665 11.8161 99.6705 11.1888C100.739 10.5573 101.964 10.2383 103.205 10.2682C104.051 10.2629 104.891 10.4031 105.689 10.6825C106.463 10.9623 107.168 11.4037 107.757 11.9772C108.386 12.6058 108.869 13.3639 109.172 14.1983C109.541 15.2261 109.717 16.3124 109.692 17.4034V18.4392H98.0647V16.1893H106.486C106.494 15.5883 106.351 14.9949 106.07 14.463C105.799 13.9808 105.399 13.5826 104.915 13.3122C104.405 13.012 103.821 12.8605 103.229 12.8748C102.594 12.8623 101.97 13.0343 101.432 13.3697C100.935 13.6863 100.528 14.124 100.248 14.6414C99.964 15.173 99.8133 15.7654 99.8091 16.3677V18.3241C99.7891 19.0537 99.9435 19.7775 100.26 20.4359C100.541 20.9984 100.983 21.465 101.53 21.7767C102.111 22.0979 102.767 22.2589 103.431 22.2427C103.878 22.2487 104.324 22.1787 104.748 22.0356C105.119 21.913 105.462 21.7152 105.753 21.4544C106.047 21.177 106.271 20.8338 106.405 20.4532L109.53 20.7984C109.337 21.6028 108.94 22.344 108.375 22.9505C107.813 23.5735 107.113 24.058 106.33 24.3661C105.389 24.716 104.389 24.8859 103.385 24.8667Z" fill="white"></path>
    <path d="M112.517 24.5905V10.4581H115.757V12.8173H115.902C116.122 12.054 116.594 11.387 117.242 10.9242C117.873 10.4798 118.629 10.2461 119.402 10.2567C119.587 10.2567 119.795 10.2567 120.026 10.2567C120.22 10.2691 120.412 10.2922 120.603 10.3257V13.3928C120.386 13.3238 120.161 13.2794 119.933 13.2604C119.643 13.2199 119.349 13.1988 119.055 13.1971C118.484 13.1885 117.92 13.3231 117.415 13.5884C116.936 13.8346 116.536 14.2093 116.26 14.6702C115.979 15.1518 115.837 15.7014 115.85 16.2584V24.5905H112.517Z" fill="white"></path>
    <path d="M131.844 25.822H131.422C129.566 25.8189 127.786 25.0824 126.473 23.7739C125.161 22.4654 124.423 20.6918 124.422 18.8421V13.0878C124.423 11.2381 125.161 9.46448 126.473 8.15599C127.786 6.8475 129.566 6.11096 131.422 6.10791H131.844C133.702 6.10943 135.483 6.8453 136.797 8.15396C138.11 9.46261 138.849 11.2371 138.851 13.0878V18.8421C138.849 20.6928 138.11 22.4673 136.797 23.7759C135.483 25.0846 133.702 25.8204 131.844 25.822ZM131.422 9.56046C130.484 9.56198 129.585 9.93429 128.922 10.5956C128.26 11.257 127.887 12.1533 127.887 13.0878V18.8421C127.887 19.7766 128.26 20.6729 128.922 21.3342C129.585 21.9956 130.484 22.3679 131.422 22.3694H131.844C132.783 22.3679 133.682 21.9958 134.346 21.3346C135.01 20.6734 135.383 19.7771 135.385 18.8421V13.0878C135.383 12.1528 135.01 11.2565 134.346 10.5953C133.682 9.9341 132.783 9.56198 131.844 9.56046H131.422Z" fill="#E95495"></path>
    <path d="M135.479 9.8043L125.364 19.689L127.791 22.1536L137.906 12.2689L135.479 9.8043Z" fill="#E95495"></path>
  </g>
  <defs>
    <clipPath id="clip0_108_10618">
      <rect width="142.769" height="32" fill="white"></rect>
    </clipPath>
  </defs>
</svg>
